<?xml version="1.0" encoding="UTF-8" standalone="no"?>
<!DOCTYPE svg PUBLIC "-//W3C//DTD SVG 1.1//EN"
 "http://www.w3.org/Graphics/SVG/1.1/DTD/svg11.dtd">
<!-- Generated by graphviz version 14.1.1 (20251213.1925)
 -->
<!-- Title: complete_graph_grouped Pages: 1 -->
<svg width="1691pt" height="706pt"
 viewBox="0.00 0.00 1691.00 706.00" xmlns="http://www.w3.org/2000/svg" xmlns:xlink="http://www.w3.org/1999/xlink">
<g id="graph0" class="graph" transform="scale(1 1) rotate(0) translate(4 702)">
<title>complete_graph_grouped</title>
<polygon fill="white" stroke="none" points="-4,4 -4,-702 1686.68,-702 1686.68,4 -4,4"/>
<g id="clust1" class="cluster">
<title>cluster_0</title>
<polygon fill="lightgrey" stroke="lightgrey" points="954.68,-80 954.68,-529 1168.68,-529 1168.68,-80 954.68,-80"/>
<text xml:space="preserve" text-anchor="middle" x="1061.68" y="-511.7" font-family="Times,serif" font-size="14.00">types.sheet</text>
</g>
<g id="clust2" class="cluster">
<title>cluster_1</title>
<polygon fill="lightgrey" stroke="lightgrey" points="1176.68,-8 1176.68,-372.5 1358.68,-372.5 1358.68,-8 1176.68,-8"/>
<text xml:space="preserve" text-anchor="middle" x="1267.68" y="-355.2" font-family="Times,serif" font-size="14.00">metaLevels.sheet</text>
</g>
<g id="clust3" class="cluster">
<title>cluster_2</title>
<polygon fill="lightgrey" stroke="lightgrey" points="96.68,-452.5 96.68,-690 310.68,-690 310.68,-452.5 96.68,-452.5"/>
<text xml:space="preserve" text-anchor="middle" x="203.68" y="-672.7" font-family="Times,serif" font-size="14.00">metaRelations.sheet</text>
</g>
<g id="clust4" class="cluster">
<title>cluster_3</title>
<polygon fill="lightgrey" stroke="lightgrey" points="466.68,-380.5 466.68,-605.5 744.68,-605.5 744.68,-380.5 466.68,-380.5"/>
<text xml:space="preserve" text-anchor="middle" x="605.68" y="-588.2" font-family="Times,serif" font-size="14.00">metaRelationSignatures.sheet</text>
</g>
<g id="clust5" class="cluster">
<title>cluster_legend</title>
<polygon fill="lightyellow" stroke="lightyellow" points="329.68,-613.5 329.68,-690 1346.68,-690 1346.68,-613.5 329.68,-613.5"/>
<text xml:space="preserve" text-anchor="middle" x="838.18" y="-672.7" font-family="Times,serif" font-size="14.00">Legend</text>
</g>
<!-- class -->
<g id="node1" class="node">
<title>class</title>
<polygon fill="white" stroke="black" points="1160.68,-496.5 1106.68,-496.5 1106.68,-460.5 1160.68,-460.5 1160.68,-496.5"/>
<text xml:space="preserve" text-anchor="middle" x="1133.68" y="-473.45" font-family="Times,serif" font-size="14.00">class</text>
</g>
<!-- metaType -->
<g id="node2" class="node">
<title>metaType</title>
<polygon fill="white" stroke="black" points="1160.68,-406.5 1147.18,-424.5 1120.18,-424.5 1106.68,-406.5 1120.18,-388.5 1147.18,-388.5 1160.68,-406.5"/>
<text xml:space="preserve" text-anchor="middle" x="1133.68" y="-401.45" font-family="Times,serif" font-size="14.00">mt</text>
</g>
<!-- class&#45;&gt;metaType -->
<g id="edge1" class="edge">
<title>class&#45;&gt;metaType</title>
<path fill="none" stroke="#0000ff" d="M1133.68,-460.2C1133.68,-452.91 1133.68,-444.23 1133.68,-436.04"/>
<polygon fill="#0000ff" stroke="#0000ff" points="1137.18,-436.12 1133.68,-426.12 1130.18,-436.12 1137.18,-436.12"/>
</g>
<!-- ml2 -->
<g id="node9" class="node">
<title>ml2</title>
<polygon fill="white" stroke="black" points="1312.43,-178 1297.55,-196 1267.81,-196 1252.94,-178 1267.81,-160 1297.55,-160 1312.43,-178"/>
<text xml:space="preserve" text-anchor="middle" x="1282.68" y="-172.95" font-family="Times,serif" font-size="14.00">ml2</text>
</g>
<!-- class&#45;&gt;ml2 -->
<g id="edge7" class="edge">
<title>class&#45;&gt;ml2</title>
<path fill="none" stroke="#00aa00" d="M1161.07,-468.77C1201.38,-454.64 1276.76,-423.11 1321.68,-372.5 1365.03,-323.66 1395.9,-289.36 1364.68,-232 1354.36,-213.05 1334.03,-199.84 1316.19,-191.35"/>
<polygon fill="#00aa00" stroke="#00aa00" points="1317.75,-188.21 1307.19,-187.38 1314.93,-194.61 1317.75,-188.21"/>
</g>
<!-- metaNType -->
<g id="node6" class="node">
<title>metaNType</title>
<ellipse fill="white" stroke="black" cx="989.68" cy="-322" rx="27" ry="18"/>
<text xml:space="preserve" text-anchor="middle" x="989.68" y="-316.95" font-family="Times,serif" font-size="14.00">mnt</text>
</g>
<!-- metaType&#45;&gt;metaNType -->
<g id="edge2" class="edge">
<title>metaType&#45;&gt;metaNType</title>
<path fill="none" stroke="#0000ff" d="M1116.38,-392.87C1110.54,-388.77 1103.92,-384.31 1097.68,-380.5 1072.6,-365.19 1043.08,-349.63 1021.25,-338.57"/>
<polygon fill="#0000ff" stroke="#0000ff" points="1023.06,-335.56 1012.55,-334.2 1019.92,-341.81 1023.06,-335.56"/>
</g>
<!-- ml3 -->
<g id="node10" class="node">
<title>ml3</title>
<ellipse fill="white" stroke="black" cx="1212.68" cy="-34" rx="27" ry="18"/>
<text xml:space="preserve" text-anchor="middle" x="1212.68" y="-28.95" font-family="Times,serif" font-size="14.00">ml3</text>
</g>
<!-- metaType&#45;&gt;ml3 -->
<g id="edge8" class="edge">
<title>metaType&#45;&gt;ml3</title>
<path fill="none" stroke="#00aa00" d="M1160.07,-404.86C1245.79,-402.59 1512.77,-393.84 1544.68,-372.5 1595.07,-338.79 1606.68,-311.62 1606.68,-251 1606.68,-251 1606.68,-251 1606.68,-177 1606.68,-132.59 1615.93,-109.44 1582.68,-80 1534.32,-37.18 1336.36,-33.78 1251.55,-34.36"/>
<polygon fill="#00aa00" stroke="#00aa00" points="1251.6,-30.86 1241.63,-34.45 1251.67,-37.86 1251.6,-30.86"/>
</g>
<!-- metaLevelType -->
<g id="node3" class="node">
<title>metaLevelType</title>
<polygon fill="white" stroke="black" points="1072.06,-106 1058.37,-124 1030.99,-124 1017.3,-106 1030.99,-88 1058.37,-88 1072.06,-106"/>
<text xml:space="preserve" text-anchor="middle" x="1044.68" y="-100.95" font-family="Times,serif" font-size="14.00">mlt</text>
</g>
<!-- metaLevelType&#45;&gt;metaNType -->
<g id="edge3" class="edge">
<title>metaLevelType&#45;&gt;metaNType</title>
<path fill="none" stroke="#0000ff" d="M1040.1,-124.18C1037.35,-134.54 1033.79,-148.02 1030.68,-160 1018.56,-206.75 1004.75,-261.22 996.65,-293.31"/>
<polygon fill="#0000ff" stroke="#0000ff" points="993.36,-292.05 994.31,-302.6 1000.15,-293.76 993.36,-292.05"/>
</g>
<!-- metaLevelType&#45;&gt;ml3 -->
<g id="edge9" class="edge">
<title>metaLevelType&#45;&gt;ml3</title>
<path fill="none" stroke="#00aa00" d="M1066.33,-97.77C1095.74,-86.65 1147.99,-65.07 1181.54,-50.35"/>
<polygon fill="#00aa00" stroke="#00aa00" points="1182.62,-53.7 1190.34,-46.45 1179.78,-47.3 1182.62,-53.7"/>
</g>
<!-- metaRelation -->
<g id="node4" class="node">
<title>metaRelation</title>
<polygon fill="white" stroke="black" points="1016.68,-424.5 962.68,-424.5 962.68,-388.5 1016.68,-388.5 1016.68,-424.5"/>
<text xml:space="preserve" text-anchor="middle" x="989.68" y="-401.45" font-family="Times,serif" font-size="14.00">mr</text>
</g>
<!-- metaRelation&#45;&gt;metaNType -->
<g id="edge4" class="edge">
<title>metaRelation&#45;&gt;metaNType</title>
<path fill="none" stroke="#0000ff" d="M989.68,-388C989.68,-377.5 989.68,-363.89 989.68,-351.83"/>
<polygon fill="#0000ff" stroke="#0000ff" points="993.18,-351.98 989.68,-341.98 986.18,-351.98 993.18,-351.98"/>
</g>
<!-- metaRelation&#45;&gt;ml3 -->
<g id="edge10" class="edge">
<title>metaRelation&#45;&gt;ml3</title>
<path fill="none" stroke="#00aa00" d="M1010.27,-388.19C1015.06,-385.05 1020.32,-382.23 1025.68,-380.5 1048.1,-373.25 1429.12,-384 1449.68,-372.5 1497.84,-345.58 1501.17,-320.94 1516.68,-268 1540.21,-187.7 1565.03,-139.97 1506.68,-80 1471.98,-44.33 1322.84,-36.86 1251.28,-35.35"/>
<polygon fill="#00aa00" stroke="#00aa00" points="1251.66,-31.86 1241.6,-35.18 1251.53,-38.86 1251.66,-31.86"/>
</g>
<!-- metaRelationSignature -->
<g id="node5" class="node">
<title>metaRelationSignature</title>
<polygon fill="white" stroke="black" points="1088.68,-424.5 1034.68,-424.5 1034.68,-388.5 1088.68,-388.5 1088.68,-424.5"/>
<text xml:space="preserve" text-anchor="middle" x="1061.68" y="-401.45" font-family="Times,serif" font-size="14.00">mrs</text>
</g>
<!-- metaRelationSignature&#45;&gt;metaNType -->
<g id="edge5" class="edge">
<title>metaRelationSignature&#45;&gt;metaNType</title>
<path fill="none" stroke="#0000ff" d="M1046.41,-388C1035.88,-375.94 1021.76,-359.76 1010.24,-346.56"/>
<polygon fill="#0000ff" stroke="#0000ff" points="1012.96,-344.36 1003.75,-339.12 1007.69,-348.96 1012.96,-344.36"/>
</g>
<!-- metaRelationSignature&#45;&gt;ml3 -->
<g id="edge11" class="edge">
<title>metaRelationSignature&#45;&gt;ml3</title>
<path fill="none" stroke="#00aa00" d="M1082.27,-388.19C1087.06,-385.06 1092.32,-382.24 1097.68,-380.5 1119.3,-373.5 1487.67,-384.95 1506.68,-372.5 1528.06,-358.5 1549.22,-292.96 1554.68,-268 1572.56,-186.26 1603.54,-139.47 1544.68,-80 1504.45,-39.35 1330.11,-34.6 1251.45,-34.58"/>
<polygon fill="#00aa00" stroke="#00aa00" points="1251.62,-31.08 1241.63,-34.61 1251.64,-38.08 1251.62,-31.08"/>
</g>
<!-- metaNType&#45;&gt;metaNType -->
<g id="edge6" class="edge">
<title>metaNType&#45;&gt;metaNType</title>
<path fill="none" stroke="#0000ff" d="M1009.58,-334.43C1022.37,-337.68 1034.68,-333.53 1034.68,-322 1034.68,-313.98 1028.73,-309.54 1020.8,-308.66"/>
<polygon fill="#0000ff" stroke="#0000ff" points="1020.77,-305.15 1011.09,-309.45 1021.33,-312.13 1020.77,-305.15"/>
</g>
<!-- mlN -->
<g id="node11" class="node">
<title>mlN</title>
<ellipse fill="white" stroke="black" cx="1212.68" cy="-250" rx="27.81" ry="18"/>
<text xml:space="preserve" text-anchor="middle" x="1212.68" y="-244.95" font-family="Times,serif" font-size="14.00">mlN</text>
</g>
<!-- metaNType&#45;&gt;mlN -->
<g id="edge12" class="edge">
<title>metaNType&#45;&gt;mlN</title>
<path fill="none" stroke="#00aa00" d="M1015.29,-315.76C1052.49,-307.73 1123.31,-290.88 1180.68,-268 1181.16,-267.81 1181.65,-267.61 1182.13,-267.41"/>
<polygon fill="#00aa00" stroke="#00aa00" points="1183.38,-270.69 1190.97,-263.29 1180.42,-264.34 1183.38,-270.69"/>
</g>
<!-- ml0 -->
<g id="node7" class="node">
<title>ml0</title>
<polygon fill="white" stroke="black" points="1312.68,-340 1258.68,-340 1258.68,-304 1312.68,-304 1312.68,-340"/>
<text xml:space="preserve" text-anchor="middle" x="1285.68" y="-316.95" font-family="Times,serif" font-size="14.00">ml0</text>
</g>
<!-- ml0&#45;&gt;metaLevelType -->
<g id="edge13" class="edge">
<title>ml0&#45;&gt;metaLevelType</title>
<path fill="none" stroke="#0000ff" d="M1265.12,-303.89C1236.63,-280.08 1183.68,-235.41 1139.68,-196 1115.01,-173.9 1087.45,-147.94 1068.4,-129.77"/>
<polygon fill="#0000ff" stroke="#0000ff" points="1071.02,-127.44 1061.38,-123.07 1066.19,-132.51 1071.02,-127.44"/>
</g>
<!-- ml1 -->
<g id="node8" class="node">
<title>ml1</title>
<polygon fill="white" stroke="black" points="1330.68,-268 1276.68,-268 1276.68,-232 1330.68,-232 1330.68,-268"/>
<text xml:space="preserve" text-anchor="middle" x="1303.68" y="-244.95" font-family="Times,serif" font-size="14.00">ml1</text>
</g>
<!-- ml0&#45;&gt;ml1 -->
<g id="edge23" class="edge">
<title>ml0&#45;&gt;ml1</title>
<path fill="none" stroke="#8b4513" d="M1290.13,-303.7C1292.03,-296.32 1294.29,-287.52 1296.42,-279.25"/>
<polygon fill="#8b4513" stroke="#8b4513" points="1299.81,-280.13 1298.91,-269.57 1293.03,-278.38 1299.81,-280.13"/>
</g>
<!-- ml0&#45;&gt;ml2 -->
<g id="edge18" class="edge">
<title>ml0&#45;&gt;ml2</title>
<path fill="none" stroke="#00aa00" d="M1313.17,-304.11C1325.23,-295.05 1338.12,-282.71 1344.68,-268 1351.2,-253.39 1351.38,-246.53 1344.68,-232 1337.88,-217.24 1324.72,-205.07 1312.27,-196.12"/>
<polygon fill="#00aa00" stroke="#00aa00" points="1314.52,-193.41 1304.26,-190.76 1310.62,-199.23 1314.52,-193.41"/>
</g>
<!-- ml1&#45;&gt;metaLevelType -->
<g id="edge14" class="edge">
<title>ml1&#45;&gt;metaLevelType</title>
<path fill="none" stroke="#0000ff" d="M1276.45,-234.07C1227.22,-207.08 1123.86,-150.41 1073.49,-122.8"/>
<polygon fill="#0000ff" stroke="#0000ff" points="1075.37,-119.83 1064.92,-118.09 1072,-125.97 1075.37,-119.83"/>
</g>
<!-- ml1&#45;&gt;ml2 -->
<g id="edge19" class="edge">
<title>ml1&#45;&gt;ml2</title>
<path fill="none" stroke="#00aa00" d="M1292.57,-231.7C1289.6,-224.32 1286.72,-215.52 1284.52,-207.25"/>
<polygon fill="#00aa00" stroke="#00aa00" points="1287.94,-206.52 1282.26,-197.58 1281.13,-208.11 1287.94,-206.52"/>
</g>
<!-- ml1&#45;&gt;ml2 -->
<g id="edge24" class="edge">
<title>ml1&#45;&gt;ml2</title>
<path fill="none" stroke="#8b4513" d="M1304.41,-231.7C1302.92,-224.15 1300.44,-215.12 1297.6,-206.68"/>
<polygon fill="#8b4513" stroke="#8b4513" points="1300.97,-205.7 1294.23,-197.52 1294.4,-208.12 1300.97,-205.7"/>
</g>
<!-- ml2&#45;&gt;metaLevelType -->
<g id="edge15" class="edge">
<title>ml2&#45;&gt;metaLevelType</title>
<path fill="none" stroke="#0000ff" d="M1262.49,-166.04C1258.02,-163.86 1253.25,-161.72 1248.68,-160 1190.87,-138.31 1120.64,-122.19 1079.48,-113.72"/>
<polygon fill="#0000ff" stroke="#0000ff" points="1080.4,-110.33 1069.91,-111.78 1079.02,-117.19 1080.4,-110.33"/>
</g>
<!-- ml2&#45;&gt;ml2 -->
<g id="edge20" class="edge">
<title>ml2&#45;&gt;ml2</title>
<path fill="none" stroke="#00aa00" d="M1302.8,-190.18C1316.72,-193.87 1330.43,-189.81 1330.43,-178 1330.43,-169.51 1323.35,-165.02 1314.19,-164.54"/>
<polygon fill="#00aa00" stroke="#00aa00" points="1313.85,-161.06 1304.3,-165.65 1314.63,-168.02 1313.85,-161.06"/>
</g>
<!-- ml2&#45;&gt;ml3 -->
<g id="edge25" class="edge">
<title>ml2&#45;&gt;ml3</title>
<path fill="none" stroke="#8b4513" d="M1269.48,-159.59C1255.04,-135.4 1233.04,-91.36 1220.84,-62.65"/>
<polygon fill="#8b4513" stroke="#8b4513" points="1224.13,-61.45 1217.11,-53.51 1217.64,-64.09 1224.13,-61.45"/>
</g>
<!-- ml3&#45;&gt;metaLevelType -->
<g id="edge16" class="edge">
<title>ml3&#45;&gt;metaLevelType</title>
<path fill="none" stroke="#0000ff" d="M1188.96,-43.01C1158.82,-54.5 1107.23,-75.84 1074.5,-90.23"/>
<polygon fill="#0000ff" stroke="#0000ff" points="1073.28,-86.94 1065.56,-94.21 1076.12,-93.34 1073.28,-86.94"/>
</g>
<!-- ml3&#45;&gt;ml2 -->
<g id="edge21" class="edge">
<title>ml3&#45;&gt;ml2</title>
<path fill="none" stroke="#00aa00" d="M1224.66,-50.38C1239.02,-74.01 1261.86,-119.59 1274.43,-149.13"/>
<polygon fill="#00aa00" stroke="#00aa00" points="1271.11,-150.26 1278.14,-158.19 1277.59,-147.61 1271.11,-150.26"/>
</g>
<!-- ml3&#45;&gt;mlN -->
<g id="edge26" class="edge">
<title>ml3&#45;&gt;mlN</title>
<path fill="none" stroke="#8b4513" d="M1212.68,-52.23C1212.68,-89.01 1212.68,-175.5 1212.68,-220.57"/>
<polygon fill="#8b4513" stroke="#8b4513" points="1209.18,-220.34 1212.68,-230.34 1216.18,-220.34 1209.18,-220.34"/>
</g>
<!-- mlN&#45;&gt;metaLevelType -->
<g id="edge17" class="edge">
<title>mlN&#45;&gt;metaLevelType</title>
<path fill="none" stroke="#0000ff" d="M1195.11,-235.8C1181.23,-225.26 1161.47,-209.99 1144.68,-196 1118.08,-173.84 1088.58,-147.34 1068.56,-129.05"/>
<polygon fill="#0000ff" stroke="#0000ff" points="1071.19,-126.71 1061.45,-122.53 1066.46,-131.87 1071.19,-126.71"/>
</g>
<!-- mlN&#45;&gt;ml2 -->
<g id="edge22" class="edge">
<title>mlN&#45;&gt;ml2</title>
<path fill="none" stroke="#00aa00" d="M1227.19,-234.5C1236.29,-225.4 1248.24,-213.44 1258.72,-202.96"/>
<polygon fill="#00aa00" stroke="#00aa00" points="1261.07,-205.57 1265.66,-196.02 1256.12,-200.62 1261.07,-205.57"/>
</g>
<!-- mlN&#45;&gt;mlN -->
<g id="edge27" class="edge">
<title>mlN&#45;&gt;mlN</title>
<path fill="none" stroke="#8b4513" d="M1233.41,-262.55C1246.26,-265.57 1258.49,-261.39 1258.49,-250 1258.49,-242.08 1252.58,-237.64 1244.65,-236.69"/>
<polygon fill="#8b4513" stroke="#8b4513" points="1244.66,-233.19 1234.92,-237.35 1245.13,-240.17 1244.66,-233.19"/>
</g>
<!-- type_rel -->
<g id="node12" class="node">
<title>type_rel</title>
<polygon fill="#0000ff" stroke="black" points="302.68,-657.5 248.68,-657.5 248.68,-621.5 302.68,-621.5 302.68,-657.5"/>
<text xml:space="preserve" text-anchor="middle" x="275.68" y="-634.45" font-family="Times,serif" font-size="14.00" fill="white">type</text>
</g>
<!-- type_rel&#45;&gt;metaNType -->
<g id="edge28" class="edge">
<title>type_rel&#45;&gt;metaNType</title>
<path fill="none" stroke="#0000ff" d="M296.31,-621.14C301.57,-616.31 307.04,-610.9 311.68,-605.5 331.31,-582.67 436.92,-396.09 462.68,-380.5 544.93,-330.73 843.92,-323.9 951.11,-323.07"/>
<polygon fill="#0000ff" stroke="#0000ff" points="950.84,-326.57 960.82,-323.01 950.8,-319.57 950.84,-326.57"/>
</g>
<!-- type_rel&#45;&gt;ml3 -->
<g id="edge34" class="edge">
<title>type_rel&#45;&gt;ml3</title>
<path fill="none" stroke="#00aa00" d="M303.13,-622.06C310.24,-618.57 318.05,-615.38 325.68,-613.5 371.33,-602.27 701.77,-608.47 748.68,-605.5 1064.99,-585.48 1144.89,-580.13 1457.68,-529 1558.73,-512.48 1682.68,-581.89 1682.68,-479.5 1682.68,-479.5 1682.68,-479.5 1682.68,-177 1682.68,-129.66 1677.07,-107.7 1638.68,-80 1577.37,-35.75 1344.7,-33.41 1251.56,-34.31"/>
<polygon fill="#00aa00" stroke="#00aa00" points="1251.62,-30.81 1241.66,-34.43 1251.7,-37.81 1251.62,-30.81"/>
</g>
<!-- sig1 -->
<g id="node18" class="node">
<title>sig1</title>
<ellipse fill="white" stroke="black" cx="709.68" cy="-555" rx="27" ry="18"/>
<text xml:space="preserve" text-anchor="middle" x="709.68" y="-549.95" font-family="Times,serif" font-size="14.00">a2at</text>
</g>
<!-- type_rel&#45;&gt;sig1 -->
<g id="edge40" class="edge">
<title>type_rel&#45;&gt;sig1</title>
<path fill="none" stroke="#ff0000" d="M302.92,-622.4C310.1,-618.86 317.99,-615.55 325.68,-613.5 384.61,-597.76 402.19,-613.29 462.68,-605.5 538.42,-595.75 625.74,-576.27 673.62,-564.87"/>
<polygon fill="#ff0000" stroke="#ff0000" points="674.25,-568.32 683.16,-562.58 672.61,-561.51 674.25,-568.32"/>
</g>
<!-- metaLevel_rel -->
<g id="node13" class="node">
<title>metaLevel_rel</title>
<polygon fill="#00aa00" stroke="black" points="158.68,-496.5 104.68,-496.5 104.68,-460.5 158.68,-460.5 158.68,-496.5"/>
<text xml:space="preserve" text-anchor="middle" x="131.68" y="-473.45" font-family="Times,serif" font-size="14.00" fill="white">ml</text>
</g>
<!-- metaLevel_rel&#45;&gt;metaNType -->
<g id="edge29" class="edge">
<title>metaLevel_rel&#45;&gt;metaNType</title>
<path fill="none" stroke="#0000ff" d="M140.9,-460.16C154.08,-437.35 180.65,-398.1 215.68,-380.5 281.84,-347.26 804.96,-328.71 951.59,-324.13"/>
<polygon fill="#0000ff" stroke="#0000ff" points="951.26,-327.64 961.15,-323.84 951.04,-320.65 951.26,-327.64"/>
</g>
<!-- metaLevel_rel&#45;&gt;ml3 -->
<g id="edge35" class="edge">
<title>metaLevel_rel&#45;&gt;ml3</title>
<path fill="none" stroke="#00aa00" d="M128.56,-460.42C123.66,-432.01 114.68,-373.19 114.68,-323 114.68,-323 114.68,-323 114.68,-177 114.68,-106.68 173.7,-104.32 239.68,-80 328.39,-47.31 1004.63,-37.39 1174.21,-35.41"/>
<polygon fill="#00aa00" stroke="#00aa00" points="1174.05,-38.91 1184.01,-35.3 1173.97,-31.91 1174.05,-38.91"/>
</g>
<!-- sig2 -->
<g id="node19" class="node">
<title>sig2</title>
<ellipse fill="white" stroke="black" cx="506.68" cy="-406.5" rx="32.41" ry="18"/>
<text xml:space="preserve" text-anchor="middle" x="506.68" y="-401.45" font-family="Times,serif" font-size="14.00">a2mlt</text>
</g>
<!-- metaLevel_rel&#45;&gt;sig2 -->
<g id="edge41" class="edge">
<title>metaLevel_rel&#45;&gt;sig2</title>
<path fill="none" stroke="#ff0000" d="M153.21,-460.13C157.77,-457.16 162.71,-454.42 167.68,-452.5 268.22,-413.56 396.71,-407.22 462.9,-406.83"/>
<polygon fill="#ff0000" stroke="#ff0000" points="462.62,-410.33 472.61,-406.82 462.61,-403.33 462.62,-410.33"/>
</g>
<!-- signature_rel -->
<g id="node14" class="node">
<title>signature_rel</title>
<polygon fill="#ff0000" stroke="black" points="158.68,-573 104.68,-573 104.68,-537 158.68,-537 158.68,-573"/>
<text xml:space="preserve" text-anchor="middle" x="131.68" y="-549.95" font-family="Times,serif" font-size="14.00" fill="white">sig</text>
</g>
<!-- signature_rel&#45;&gt;metaNType -->
<g id="edge30" class="edge">
<title>signature_rel&#45;&gt;metaNType</title>
<path fill="none" stroke="#0000ff" d="M158.84,-540.04C161.77,-538.87 164.76,-537.83 167.68,-537 183.17,-532.61 226.74,-538.58 239.68,-529 269.45,-506.97 253.43,-484.13 272.68,-452.5 294.2,-417.16 295.1,-399.81 331.68,-380.5 440.23,-323.19 827.43,-321.52 951.28,-322.51"/>
<polygon fill="#0000ff" stroke="#0000ff" points="950.88,-326.01 960.92,-322.6 950.95,-319.01 950.88,-326.01"/>
</g>
<!-- signature_rel&#45;&gt;ml3 -->
<g id="edge36" class="edge">
<title>signature_rel&#45;&gt;ml3</title>
<path fill="none" stroke="#00aa00" d="M104.54,-554.31C82.32,-553.07 51.58,-547.71 32.68,-529 -7,-489.72 0.68,-463.34 0.68,-407.5 0.68,-407.5 0.68,-407.5 0.68,-177 0.68,-130.2 3.18,-106.61 41.68,-80 89.25,-47.13 976.01,-37.15 1173.79,-35.33"/>
<polygon fill="#00aa00" stroke="#00aa00" points="1173.81,-38.83 1183.78,-35.24 1173.75,-31.83 1173.81,-38.83"/>
</g>
<!-- sig3 -->
<g id="node20" class="node">
<title>sig3</title>
<ellipse fill="white" stroke="black" cx="691.68" cy="-406.5" rx="45.21" ry="18"/>
<text xml:space="preserve" text-anchor="middle" x="691.68" y="-401.45" font-family="Times,serif" font-size="14.00">mnt2mnt</text>
</g>
<!-- signature_rel&#45;&gt;sig3 -->
<g id="edge42" class="edge">
<title>signature_rel&#45;&gt;sig3</title>
<path fill="none" stroke="#ff0000" d="M158.81,-539.93C161.75,-538.79 164.74,-537.78 167.68,-537 190.3,-531.02 251.43,-538.81 272.68,-529 316.2,-508.92 305.37,-473.03 348.68,-452.5 465.29,-397.23 511.23,-450.24 637.68,-424.5 640.99,-423.83 644.39,-423.03 647.79,-422.15"/>
<polygon fill="#ff0000" stroke="#ff0000" points="648.41,-425.61 657.09,-419.53 646.52,-418.87 648.41,-425.61"/>
</g>
<!-- sig5 -->
<g id="node22" class="node">
<title>sig5</title>
<ellipse fill="white" stroke="black" cx="597.68" cy="-478.5" rx="40.6" ry="18"/>
<text xml:space="preserve" text-anchor="middle" x="597.68" y="-473.45" font-family="Times,serif" font-size="14.00">mr2mrs</text>
</g>
<!-- signature_rel&#45;&gt;sig5 -->
<g id="edge43" class="edge">
<title>signature_rel&#45;&gt;sig5</title>
<path fill="none" stroke="#ff0000" d="M158.78,-539.84C161.73,-538.71 164.73,-537.73 167.68,-537 206.76,-527.33 308.71,-533.83 348.68,-529 420.33,-520.35 502.19,-502.51 551.89,-490.78"/>
<polygon fill="#ff0000" stroke="#ff0000" points="552.51,-494.23 561.43,-488.51 550.89,-487.42 552.51,-494.23"/>
</g>
<!-- sourceType_rel -->
<g id="node15" class="node">
<title>sourceType_rel</title>
<polygon fill="#ff8800" stroke="black" points="230.68,-555 217.18,-573 190.18,-573 176.68,-555 190.18,-537 217.18,-537 230.68,-555"/>
<text xml:space="preserve" text-anchor="middle" x="203.68" y="-549.95" font-family="Times,serif" font-size="14.00" fill="white">st</text>
</g>
<!-- sourceType_rel&#45;&gt;metaNType -->
<g id="edge31" class="edge">
<title>sourceType_rel&#45;&gt;metaNType</title>
<path fill="none" stroke="#0000ff" d="M222.81,-544.09C228.17,-541.55 234.08,-538.98 239.68,-537 253.91,-531.97 260.2,-537.48 272.68,-529 339.55,-483.59 307.72,-420.98 377.68,-380.5 475.8,-323.73 832.57,-321.58 951.1,-322.5"/>
<polygon fill="#0000ff" stroke="#0000ff" points="950.9,-326 960.93,-322.59 950.97,-319 950.9,-326"/>
</g>
<!-- sourceType_rel&#45;&gt;ml3 -->
<g id="edge37" class="edge">
<title>sourceType_rel&#45;&gt;ml3</title>
<path fill="none" stroke="#00aa00" d="M184.74,-543.49C179.37,-540.95 173.43,-538.53 167.68,-537 145.92,-531.21 83.73,-543.7 66.68,-529 24.72,-492.81 38.68,-462.92 38.68,-407.5 38.68,-407.5 38.68,-407.5 38.68,-177 38.68,-129.66 43.41,-106.43 82.68,-80 128.88,-48.91 980.77,-37.58 1173.95,-35.41"/>
<polygon fill="#00aa00" stroke="#00aa00" points="1173.98,-38.91 1183.94,-35.3 1173.9,-31.91 1173.98,-38.91"/>
</g>
<!-- sourceType_rel&#45;&gt;sig3 -->
<g id="edge45" class="edge">
<title>sourceType_rel&#45;&gt;sig3</title>
<path fill="none" stroke="#ff0000" d="M222.62,-543.47C227.98,-540.93 233.93,-538.51 239.68,-537 263.17,-530.82 326.75,-539.44 348.68,-529 390.84,-508.92 379.1,-473.73 420.68,-452.5 507.29,-408.29 542.71,-445.4 637.68,-424.5 640.83,-423.81 644.06,-423.01 647.3,-422.15"/>
<polygon fill="#ff0000" stroke="#ff0000" points="648.11,-425.56 656.77,-419.45 646.19,-418.83 648.11,-425.56"/>
</g>
<!-- sig6 -->
<g id="node23" class="node">
<title>sig6</title>
<ellipse fill="white" stroke="black" cx="696.68" cy="-478.5" rx="40.09" ry="18"/>
<text xml:space="preserve" text-anchor="middle" x="696.68" y="-473.45" font-family="Times,serif" font-size="14.00">mrs2mt</text>
</g>
<!-- sourceType_rel&#45;&gt;sig6 -->
<g id="edge46" class="edge">
<title>sourceType_rel&#45;&gt;sig6</title>
<path fill="none" stroke="#ff0000" d="M222.19,-543.44C227.66,-540.83 233.76,-538.39 239.68,-537 283.83,-526.65 606.01,-546.87 647.68,-529 659.64,-523.87 670.2,-514.31 678.43,-504.95"/>
<polygon fill="#ff0000" stroke="#ff0000" points="681.01,-507.32 684.62,-497.35 675.59,-502.9 681.01,-507.32"/>
</g>
<!-- targetType_rel -->
<g id="node16" class="node">
<title>targetType_rel</title>
<polygon fill="#aa00ff" stroke="black" points="302.68,-555 289.18,-573 262.18,-573 248.68,-555 262.18,-537 289.18,-537 302.68,-555"/>
<text xml:space="preserve" text-anchor="middle" x="275.68" y="-549.95" font-family="Times,serif" font-size="14.00" fill="white">tt</text>
</g>
<!-- targetType_rel&#45;&gt;metaNType -->
<g id="edge32" class="edge">
<title>targetType_rel&#45;&gt;metaNType</title>
<path fill="none" stroke="#0000ff" d="M293.83,-542.39C299.47,-538.44 305.55,-533.79 310.68,-529 373.08,-470.67 357.43,-420.92 432.68,-380.5 522.64,-332.17 840.1,-324.44 951.05,-323.22"/>
<polygon fill="#0000ff" stroke="#0000ff" points="950.86,-326.72 960.82,-323.13 950.79,-319.72 950.86,-326.72"/>
</g>
<!-- targetType_rel&#45;&gt;ml3 -->
<g id="edge38" class="edge">
<title>targetType_rel&#45;&gt;ml3</title>
<path fill="none" stroke="#00aa00" d="M256.76,-543.4C251.4,-540.86 245.44,-538.46 239.68,-537 224.15,-533.06 107.56,-539.75 95.68,-529 55.16,-492.32 76.68,-462.16 76.68,-407.5 76.68,-407.5 76.68,-407.5 76.68,-177 76.68,-127.44 89.39,-105.83 131.68,-80 177,-52.32 985.92,-38.43 1173.89,-35.56"/>
<polygon fill="#00aa00" stroke="#00aa00" points="1173.9,-39.06 1183.84,-35.41 1173.79,-32.06 1173.9,-39.06"/>
</g>
<!-- targetType_rel&#45;&gt;sig3 -->
<g id="edge47" class="edge">
<title>targetType_rel&#45;&gt;sig3</title>
<path fill="none" stroke="#ff0000" d="M301.51,-552.71C331.87,-550.51 383.34,-544.62 424.68,-529 484.9,-506.24 489.14,-479.28 547.68,-452.5 585.78,-435.07 597.7,-437.01 637.68,-424.5 640.53,-423.61 643.46,-422.69 646.42,-421.76"/>
<polygon fill="#ff0000" stroke="#ff0000" points="647.18,-425.19 655.67,-418.85 645.08,-418.51 647.18,-425.19"/>
</g>
<!-- targetType_rel&#45;&gt;sig6 -->
<g id="edge48" class="edge">
<title>targetType_rel&#45;&gt;sig6</title>
<path fill="none" stroke="#ff0000" d="M300.46,-551.37C336.23,-547.66 404.46,-540.9 462.68,-537 483.21,-535.62 628.87,-537.33 647.68,-529 659.58,-523.73 670.13,-514.15 678.37,-504.8"/>
<polygon fill="#ff0000" stroke="#ff0000" points="680.94,-507.19 684.57,-497.24 675.52,-502.76 680.94,-507.19"/>
</g>
<!-- nextMetaLevel_rel -->
<g id="node17" class="node">
<title>nextMetaLevel_rel</title>
<ellipse fill="#8b4513" stroke="black" cx="203.68" cy="-478.5" rx="27" ry="18"/>
<text xml:space="preserve" text-anchor="middle" x="203.68" y="-473.45" font-family="Times,serif" font-size="14.00" fill="white">nml</text>
</g>
<!-- nextMetaLevel_rel&#45;&gt;metaNType -->
<g id="edge33" class="edge">
<title>nextMetaLevel_rel&#45;&gt;metaNType</title>
<path fill="none" stroke="#0000ff" d="M206.96,-460.42C212.28,-437.9 225.1,-398.99 252.68,-380.5 311.01,-341.41 808.22,-327.13 951.3,-323.81"/>
<polygon fill="#0000ff" stroke="#0000ff" points="951.08,-327.32 961,-323.59 950.93,-320.32 951.08,-327.32"/>
</g>
<!-- nextMetaLevel_rel&#45;&gt;ml3 -->
<g id="edge39" class="edge">
<title>nextMetaLevel_rel&#45;&gt;ml3</title>
<path fill="none" stroke="#00aa00" d="M194.56,-461.39C179.89,-433.91 152.68,-375.82 152.68,-323 152.68,-323 152.68,-323 152.68,-177 152.68,-71.8 983.48,-41.57 1174.05,-36.02"/>
<polygon fill="#00aa00" stroke="#00aa00" points="1174,-39.53 1183.9,-35.74 1173.81,-32.53 1174,-39.53"/>
</g>
<!-- sig4 -->
<g id="node21" class="node">
<title>sig4</title>
<ellipse fill="white" stroke="black" cx="592.68" cy="-406.5" rx="36" ry="18"/>
<text xml:space="preserve" text-anchor="middle" x="592.68" y="-401.45" font-family="Times,serif" font-size="14.00">ml2ml</text>
</g>
<!-- nextMetaLevel_rel&#45;&gt;sig4 -->
<g id="edge44" class="edge">
<title>nextMetaLevel_rel&#45;&gt;sig4</title>
<path fill="none" stroke="#ff0000" d="M228.66,-471.5C252.27,-465.98 288.73,-457.87 320.68,-452.5 420.93,-435.64 448.99,-448.86 547.68,-424.5 550.12,-423.9 552.6,-423.2 555.09,-422.45"/>
<polygon fill="#ff0000" stroke="#ff0000" points="556.09,-425.8 564.45,-419.3 553.86,-419.17 556.09,-425.8"/>
</g>
<!-- sig1&#45;&gt;class -->
<g id="edge61" class="edge">
<title>sig1&#45;&gt;class</title>
<path fill="none" stroke="#aa00ff" d="M737.02,-553.36C805.52,-551.52 983.09,-545.28 1039.68,-529 1060.13,-523.12 1081.24,-512.48 1098.26,-502.58"/>
<polygon fill="#aa00ff" stroke="#aa00ff" points="1099.7,-505.79 1106.47,-497.65 1096.1,-499.79 1099.7,-505.79"/>
</g>
<!-- sig1&#45;&gt;metaType -->
<g id="edge62" class="edge">
<title>sig1&#45;&gt;metaType</title>
<path fill="none" stroke="#aa00ff" d="M736.57,-552.79C790.53,-550.09 910.17,-542.74 948.68,-529 1012.2,-506.34 1075.57,-457.65 1109.15,-429.26"/>
<polygon fill="#aa00ff" stroke="#aa00ff" points="1111.35,-431.99 1116.66,-422.82 1106.79,-426.68 1111.35,-431.99"/>
</g>
<!-- sig1&#45;&gt;metaLevelType -->
<g id="edge64" class="edge">
<title>sig1&#45;&gt;metaLevelType</title>
<path fill="none" stroke="#aa00ff" d="M736.91,-553.49C829.6,-551.62 1129.35,-544.44 1169.68,-529 1272.81,-489.51 1298.23,-462.18 1362.68,-372.5 1400.57,-319.78 1444.89,-281.33 1402.68,-232 1335.41,-153.38 1261.82,-248.53 1172.68,-196 1155.22,-185.71 1160.2,-173.04 1144.68,-160 1124.15,-142.75 1097.09,-128.83 1076.29,-119.59"/>
<polygon fill="#aa00ff" stroke="#aa00ff" points="1077.73,-116.4 1067.16,-115.67 1074.96,-122.83 1077.73,-116.4"/>
</g>
<!-- sig1&#45;&gt;metaNType -->
<g id="edge49" class="edge">
<title>sig1&#45;&gt;metaNType</title>
<path fill="none" stroke="#0000ff" d="M726.15,-540.24C765.66,-511.79 866.41,-443.25 939.68,-372.5 948.47,-364.01 957.24,-353.73 965.11,-344.74"/>
<polygon fill="#0000ff" stroke="#0000ff" points="967.59,-347.22 971.63,-337.43 962.36,-342.56 967.59,-347.22"/>
</g>
<!-- sig1&#45;&gt;metaNType -->
<g id="edge63" class="edge">
<title>sig1&#45;&gt;metaNType</title>
<path fill="none" stroke="#aa00ff" d="M730.9,-543.33C775.89,-517.05 881.6,-445.97 957.68,-372.5 965.1,-365.34 972.51,-356.89 978.52,-349.03"/>
<polygon fill="#aa00ff" stroke="#aa00ff" points="981.23,-351.25 984.19,-341.08 975.53,-347.19 981.23,-351.25"/>
</g>
<!-- sig1&#45;&gt;ml3 -->
<g id="edge55" class="edge">
<title>sig1&#45;&gt;ml3</title>
<path fill="none" stroke="#00aa00" d="M737.08,-553.64C832.35,-552.24 1148.77,-546.36 1248.68,-529 1430.06,-497.49 1644.68,-591.6 1644.68,-407.5 1644.68,-407.5 1644.68,-407.5 1644.68,-177 1644.68,-131.02 1644.89,-108.35 1608.68,-80 1553.8,-37.03 1340,-33.82 1251.43,-34.41"/>
<polygon fill="#00aa00" stroke="#00aa00" points="1251.53,-30.91 1241.56,-34.49 1251.59,-37.91 1251.53,-30.91"/>
</g>
<!-- sig2&#45;&gt;metaLevelType -->
<g id="edge65" class="edge">
<title>sig2&#45;&gt;metaLevelType</title>
<path fill="none" stroke="#aa00ff" d="M527.85,-392.34C534.2,-388.47 541.19,-384.26 547.68,-380.5 723.46,-278.61 938.68,-163.33 1015.63,-122.4"/>
<polygon fill="#aa00ff" stroke="#aa00ff" points="1017.03,-125.62 1024.22,-117.84 1013.74,-119.44 1017.03,-125.62"/>
</g>
<!-- sig2&#45;&gt;metaNType -->
<g id="edge50" class="edge">
<title>sig2&#45;&gt;metaNType</title>
<path fill="none" stroke="#0000ff" d="M525.34,-391.44C532.04,-387.14 539.87,-382.91 547.68,-380.5 580.85,-370.26 669.18,-376.36 703.68,-372.5 793.96,-362.41 898.91,-341.98 953.11,-330.78"/>
<polygon fill="#0000ff" stroke="#0000ff" points="953.63,-334.25 962.71,-328.78 952.21,-327.4 953.63,-334.25"/>
</g>
<!-- sig2&#45;&gt;ml3 -->
<g id="edge56" class="edge">
<title>sig2&#45;&gt;ml3</title>
<path fill="none" stroke="#00aa00" d="M509.62,-388.41C514.24,-359.99 522.68,-301.16 522.68,-251 522.68,-251 522.68,-251 522.68,-177 522.68,-43.02 1028.06,-34.36 1173.79,-34.65"/>
<polygon fill="#00aa00" stroke="#00aa00" points="1173.68,-38.15 1183.69,-34.69 1173.71,-31.15 1173.68,-38.15"/>
</g>
<!-- sig3&#45;&gt;metaNType -->
<g id="edge51" class="edge">
<title>sig3&#45;&gt;metaNType</title>
<path fill="none" stroke="#0000ff" d="M706.94,-389.19C714.75,-385.7 723.89,-382.47 732.68,-380.5 754.17,-375.68 910.95,-382.27 930.68,-372.5 943.34,-366.23 953.5,-354.06 962.72,-343.36"/>
<polygon fill="#0000ff" stroke="#0000ff" points="965.23,-345.8 969.26,-336.01 960,-341.15 965.23,-345.8"/>
</g>
<!-- sig3&#45;&gt;metaNType -->
<g id="edge66" class="edge">
<title>sig3&#45;&gt;metaNType</title>
<path fill="none" stroke="#aa00ff" d="M718.61,-391.68C728.45,-387.28 739.83,-382.93 750.68,-380.5 772.17,-375.68 928.95,-382.27 948.68,-372.5 959.22,-367.28 968.03,-357.97 974.75,-348.82"/>
<polygon fill="#aa00ff" stroke="#aa00ff" points="977.48,-351.04 980.14,-340.78 971.66,-347.14 977.48,-351.04"/>
</g>
<!-- sig3&#45;&gt;metaNType -->
<g id="edge70" class="edge">
<title>sig3&#45;&gt;metaNType</title>
<path fill="none" stroke="#ff8800" d="M727.15,-395.08C740.5,-389.67 755,-383.57 768.68,-380.5 790.17,-375.68 946.95,-382.27 966.68,-372.5 976.74,-367.52 985.23,-358.8 990.73,-350.06"/>
<polygon fill="#ff8800" stroke="#ff8800" points="993.74,-351.88 995.06,-341.37 987.47,-348.76 993.74,-351.88"/>
</g>
<!-- sig3&#45;&gt;ml3 -->
<g id="edge57" class="edge">
<title>sig3&#45;&gt;ml3</title>
<path fill="none" stroke="#00aa00" d="M718.87,-391.76C726.25,-388.07 734.26,-384.1 741.68,-380.5 749.19,-376.85 752.25,-377.83 758.68,-372.5 810.02,-329.96 846.68,-317.68 846.68,-251 846.68,-251 846.68,-251 846.68,-177 846.68,-113.79 894.05,-108.08 950.68,-80 1023.91,-43.69 1121.21,-36.08 1174.23,-34.84"/>
<polygon fill="#00aa00" stroke="#00aa00" points="1174.02,-38.35 1183.96,-34.68 1173.9,-31.35 1174.02,-38.35"/>
</g>
<!-- sig4&#45;&gt;metaLevelType -->
<g id="edge67" class="edge">
<title>sig4&#45;&gt;metaLevelType</title>
<path fill="none" stroke="#aa00ff" d="M607.45,-389.94C613.81,-386.21 621.31,-382.67 628.68,-380.5 654.53,-372.88 724.94,-383.17 749.68,-372.5 874.06,-318.86 978.61,-187.07 1022.72,-131.91"/>
<polygon fill="#aa00ff" stroke="#aa00ff" points="1025.29,-134.3 1028.82,-124.32 1019.83,-129.92 1025.29,-134.3"/>
</g>
<!-- sig4&#45;&gt;metaLevelType -->
<g id="edge71" class="edge">
<title>sig4&#45;&gt;metaLevelType</title>
<path fill="none" stroke="#ff8800" d="M618.04,-393.62C626.92,-388.65 636.91,-383.38 646.68,-380.5 672.53,-372.88 742.94,-383.17 767.68,-372.5 890.67,-319.46 994.26,-190.01 1030.93,-133.79"/>
<polygon fill="#ff8800" stroke="#ff8800" points="1033.81,-135.79 1036.18,-125.46 1027.88,-132.05 1033.81,-135.79"/>
</g>
<!-- sig4&#45;&gt;metaNType -->
<g id="edge52" class="edge">
<title>sig4&#45;&gt;metaNType</title>
<path fill="none" stroke="#0000ff" d="M613.29,-391.32C620.66,-387.01 629.23,-382.81 637.68,-380.5 671.03,-371.4 917.59,-387.61 948.68,-372.5 959.41,-367.29 968.32,-357.8 975.07,-348.51"/>
<polygon fill="#0000ff" stroke="#0000ff" points="977.87,-350.63 980.47,-340.36 972.03,-346.77 977.87,-350.63"/>
</g>
<!-- sig4&#45;&gt;ml3 -->
<g id="edge58" class="edge">
<title>sig4&#45;&gt;ml3</title>
<path fill="none" stroke="#00aa00" d="M612.55,-391.04C653.75,-360.3 744.68,-288.25 744.68,-251 744.68,-251 744.68,-251 744.68,-177 744.68,-109.11 800.36,-106.93 862.68,-80 918.04,-56.07 1095.28,-42.33 1174.18,-37.26"/>
<polygon fill="#00aa00" stroke="#00aa00" points="1174.25,-40.76 1184.01,-36.64 1173.81,-33.78 1174.25,-40.76"/>
</g>
<!-- sig5&#45;&gt;metaRelation -->
<g id="edge72" class="edge">
<title>sig5&#45;&gt;metaRelation</title>
<path fill="none" stroke="#ff8800" d="M621.42,-463.61C629.51,-459.43 638.77,-455.23 647.68,-452.5 703.78,-435.32 874.36,-418.07 951.31,-410.93"/>
<polygon fill="#ff8800" stroke="#ff8800" points="951.24,-414.45 960.88,-410.05 950.6,-407.48 951.24,-414.45"/>
</g>
<!-- sig5&#45;&gt;metaRelationSignature -->
<g id="edge68" class="edge">
<title>sig5&#45;&gt;metaRelationSignature</title>
<path fill="none" stroke="#aa00ff" d="M621.08,-463.44C629.23,-459.19 638.61,-455 647.68,-452.5 806.6,-408.72 860.46,-464.9 1023.65,-424.38"/>
<polygon fill="#aa00ff" stroke="#aa00ff" points="1024.28,-427.83 1033.09,-421.95 1022.53,-421.06 1024.28,-427.83"/>
</g>
<!-- sig5&#45;&gt;metaNType -->
<g id="edge53" class="edge">
<title>sig5&#45;&gt;metaNType</title>
<path fill="none" stroke="#0000ff" d="M622.7,-463.85C630.56,-459.88 639.36,-455.74 647.68,-452.5 689.9,-436.08 706.77,-447.7 745.68,-424.5 769.17,-410.5 763.75,-391.73 788.68,-380.5 821.14,-365.87 916.85,-388.45 948.68,-372.5 959.2,-367.23 968,-357.91 974.72,-348.77"/>
<polygon fill="#0000ff" stroke="#0000ff" points="977.45,-350.99 980.12,-340.74 971.64,-347.09 977.45,-350.99"/>
</g>
<!-- sig5&#45;&gt;ml3 -->
<g id="edge59" class="edge">
<title>sig5&#45;&gt;ml3</title>
<path fill="none" stroke="#00aa00" d="M622.06,-463.74C630.04,-459.66 639.07,-455.5 647.68,-452.5 705.14,-432.51 727.01,-451.19 781.68,-424.5 808.89,-411.22 805.34,-391.15 833.68,-380.5 859.06,-370.97 1298.84,-387.11 1321.68,-372.5 1350.15,-354.29 1330.17,-327.26 1354.68,-304 1384.74,-275.48 1417.73,-302.5 1440.68,-268 1467.27,-228.04 1465.14,-201.3 1440.68,-160 1399.11,-89.8 1302.59,-56.42 1249.43,-42.86"/>
<polygon fill="#00aa00" stroke="#00aa00" points="1250.49,-39.51 1239.94,-40.54 1248.83,-46.31 1250.49,-39.51"/>
</g>
<!-- sig6&#45;&gt;metaType -->
<g id="edge69" class="edge">
<title>sig6&#45;&gt;metaType</title>
<path fill="none" stroke="#aa00ff" d="M735.85,-473.88C822.94,-465.58 1030.23,-444.36 1097.68,-424.5 1099.82,-423.87 1101.99,-423.13 1104.15,-422.32"/>
<polygon fill="#aa00ff" stroke="#aa00ff" points="1105.47,-425.56 1113.29,-418.41 1102.72,-419.12 1105.47,-425.56"/>
</g>
<!-- sig6&#45;&gt;metaRelationSignature -->
<g id="edge73" class="edge">
<title>sig6&#45;&gt;metaRelationSignature</title>
<path fill="none" stroke="#ff8800" d="M736.24,-474.74C796.85,-469.73 916.13,-456.83 1023.77,-424.6"/>
<polygon fill="#ff8800" stroke="#ff8800" points="1024.5,-428.04 1033.04,-421.76 1022.45,-421.34 1024.5,-428.04"/>
</g>
<!-- sig6&#45;&gt;metaNType -->
<g id="edge54" class="edge">
<title>sig6&#45;&gt;metaNType</title>
<path fill="none" stroke="#0000ff" d="M718.95,-463.04C757.24,-438.44 834.36,-390.19 864.68,-380.5 900.4,-369.09 915.54,-390.05 948.68,-372.5 958.97,-367.05 967.67,-357.83 974.38,-348.81"/>
<polygon fill="#0000ff" stroke="#0000ff" points="977.28,-350.78 980.01,-340.55 971.49,-346.84 977.28,-350.78"/>
</g>
<!-- sig6&#45;&gt;ml3 -->
<g id="edge60" class="edge">
<title>sig6&#45;&gt;ml3</title>
<path fill="none" stroke="#00aa00" d="M726.98,-466.23C755.56,-455.57 799.58,-439.08 837.68,-424.5 888.02,-405.24 897.81,-390.97 950.68,-380.5 994.72,-371.78 1312.66,-388.32 1354.68,-372.5 1371.54,-366.15 1471.08,-284.34 1478.68,-268 1513.96,-192.13 1526.36,-140.62 1468.68,-80 1439.4,-49.22 1314.71,-39.38 1250.8,-36.32"/>
<polygon fill="#00aa00" stroke="#00aa00" points="1251.26,-32.84 1241.12,-35.89 1250.95,-39.83 1251.26,-32.84"/>
</g>
<!-- legend_shape -->
<g id="node24" class="node">
<title>legend_shape</title>
<text xml:space="preserve" text-anchor="middle" x="366.68" y="-634.45" font-family="Times,serif" font-size="14.00">Shapes:</text>
</g>
<!-- legend_public -->
<g id="node25" class="node">
<title>legend_public</title>
<polygon fill="white" stroke="black" points="467.68,-657.5 413.68,-657.5 413.68,-621.5 467.68,-621.5 467.68,-657.5"/>
<text xml:space="preserve" text-anchor="middle" x="440.68" y="-634.45" font-family="Times,serif" font-size="14.00">public</text>
</g>
<!-- legend_public1 -->
<g id="node26" class="node">
<title>legend_public1</title>
<polygon fill="white" stroke="black" points="587.7,-639.5 562.19,-657.5 511.17,-657.5 485.66,-639.5 511.17,-621.5 562.19,-621.5 587.7,-639.5"/>
<text xml:space="preserve" text-anchor="middle" x="536.68" y="-634.45" font-family="Times,serif" font-size="14.00">public+1</text>
</g>
<!-- legend_private -->
<g id="node27" class="node">
<title>legend_private</title>
<ellipse fill="white" stroke="black" cx="642.68" cy="-639.5" rx="36.51" ry="18"/>
<text xml:space="preserve" text-anchor="middle" x="642.68" y="-634.45" font-family="Times,serif" font-size="14.00">private</text>
</g>
<!-- legend_edges -->
<g id="node28" class="node">
<title>legend_edges</title>
<text xml:space="preserve" text-anchor="middle" x="740.68" y="-634.45" font-family="Times,serif" font-size="14.00">Edge Colors:</text>
</g>
<!-- legend_type -->
<g id="node29" class="node">
<title>legend_type</title>
<text xml:space="preserve" text-anchor="middle" x="829.68" y="-634.45" font-family="Times,serif" font-size="14.00" fill="#0000ff">type</text>
</g>
<!-- legend_metaLevel -->
<g id="node30" class="node">
<title>legend_metaLevel</title>
<text xml:space="preserve" text-anchor="middle" x="911.68" y="-634.45" font-family="Times,serif" font-size="14.00" fill="#00aa00">metaLevel</text>
</g>
<!-- legend_signature -->
<g id="node31" class="node">
<title>legend_signature</title>
<text xml:space="preserve" text-anchor="middle" x="999.68" y="-634.45" font-family="Times,serif" font-size="14.00" fill="#ff0000">signature</text>
</g>
<!-- legend_sourceType -->
<g id="node32" class="node">
<title>legend_sourceType</title>
<text xml:space="preserve" text-anchor="middle" x="1089.68" y="-634.45" font-family="Times,serif" font-size="14.00" fill="#ff8800">sourceType</text>
</g>
<!-- legend_targetType -->
<g id="node33" class="node">
<title>legend_targetType</title>
<text xml:space="preserve" text-anchor="middle" x="1184.68" y="-634.45" font-family="Times,serif" font-size="14.00" fill="#aa00ff">targetType</text>
</g>
<!-- legend_nextMetaLevel -->
<g id="node34" class="node">
<title>legend_nextMetaLevel</title>
<text xml:space="preserve" text-anchor="middle" x="1289.68" y="-634.45" font-family="Times,serif" font-size="14.00" fill="#8b4513">nextMetaLevel</text>
</g>
</g>
</svg>
